<?xml version="1.0" standalone="no"?>
<!DOCTYPE svg PUBLIC "-//W3C//DTD SVG 20010904//EN"
 "http://www.w3.org/TR/2001/REC-SVG-20010904/DTD/svg10.dtd">
<svg version="1.0" xmlns="http://www.w3.org/2000/svg"
 width="2558.000000pt" height="792.000000pt" viewBox="0 0 2558.000000 792.000000"
 preserveAspectRatio="xMidYMid meet">

<g transform="translate(0.000000,792.000000) scale(0.100000,-0.100000)"
fill="#000000" stroke="none">
<path d="M19260 5828 c-342 -766 -652 -1451 -688 -1522 -141 -280 -235 -376
-417 -426 l-60 -17 -3 -41 -3 -42 565 0 566 0 0 43 0 43 -106 12 c-199 22
-282 62 -319 154 -44 108 -14 238 120 536 l78 172 583 0 583 0 15 -28 c26 -50
188 -424 223 -516 19 -50 37 -113 40 -141 11 -124 -88 -184 -304 -185 l-93 0
0 -45 0 -45 815 0 815 0 0 44 0 43 -47 7 c-69 9 -162 56 -206 105 -104 116
-149 210 -862 1834 -600 1365 -619 1407 -645 1407 -26 0 -47 -44 -650 -1392z
m575 -334 l244 -559 -496 -3 c-273 -1 -498 -1 -499 1 -2 2 109 256 248 565
138 309 253 560 255 558 2 -2 114 -255 248 -562z"/>
<path d="M3265 7143 c-99 -9 -397 -66 -493 -94 -352 -102 -661 -251 -959 -465
-143 -102 -422 -362 -550 -511 -161 -188 -350 -494 -454 -735 -89 -205 -157
-436 -206 -696 -27 -142 -28 -158 -28 -492 0 -359 7 -440 60 -687 86 -409 315
-878 596 -1223 99 -122 401 -419 504 -497 98 -73 284 -198 319 -214 14 -7 26
-15 26 -19 0 -21 -383 -110 -471 -110 -34 0 -34 -3 -9 95 11 43 20 89 20 102
0 23 -3 24 -42 18 -67 -10 -412 13 -539 36 -205 37 -327 87 -448 186 l-34 28
7 -44 c15 -98 130 -331 201 -410 l33 -36 -37 -41 c-20 -23 -73 -83 -118 -133
-46 -50 -83 -95 -83 -100 0 -5 28 -22 63 -39 128 -59 274 -97 422 -108 l84 -7
3 -76 c3 -72 5 -77 31 -89 65 -31 187 -45 362 -39 292 9 579 73 925 204 584
222 951 301 1268 274 292 -24 541 -87 1252 -314 160 -51 350 -96 465 -111 147
-19 386 -28 515 -18 l105 7 3 83 3 82 42 0 c63 0 212 26 309 54 89 26 228 84
228 95 0 7 -35 48 -152 174 l-90 97 35 39 c47 53 78 108 136 242 55 127 77
196 68 205 -4 4 -24 -9 -45 -28 -88 -80 -242 -142 -440 -177 -135 -24 -443
-45 -526 -36 -54 7 -58 6 -52 -10 12 -33 30 -154 23 -161 -8 -8 -212 37 -339
77 l-100 31 133 88 c207 136 374 287 598 539 342 386 599 942 687 1486 22 134
30 607 15 787 -25 278 -107 597 -225 877 -82 194 -282 529 -415 692 -74 93
-436 450 -516 511 -159 120 -435 287 -570 346 -350 151 -575 215 -898 257
-109 14 -580 19 -702 8z m660 -73 c274 -31 521 -94 775 -198 88 -36 299 -138
360 -175 143 -85 334 -220 435 -306 143 -123 355 -348 462 -491 161 -216 331
-536 413 -775 216 -634 224 -1294 23 -1910 -142 -436 -393 -845 -714 -1165
-156 -156 -438 -378 -566 -444 l-48 -26 -230 66 c-214 60 -469 125 -610 154
l-60 13 110 34 c308 96 519 207 795 419 111 85 331 307 411 414 267 358 427
748 479 1173 19 149 8 530 -19 682 -101 567 -365 1037 -786 1397 -82 71 -188
154 -235 185 -47 31 -98 65 -113 75 -49 34 -259 135 -355 172 -316 121 -663
176 -989 156 -500 -30 -928 -183 -1308 -469 -75 -57 -253 -217 -323 -292 -278
-297 -495 -710 -581 -1109 -51 -237 -68 -562 -41 -785 51 -428 224 -854 488
-1199 117 -152 334 -360 495 -472 125 -88 390 -233 524 -287 98 -39 286 -97
315 -97 52 0 0 -20 -159 -59 -98 -24 -296 -82 -440 -128 -306 -98 -250 -102
-463 40 -429 288 -761 651 -993 1088 -197 369 -305 752 -338 1194 -20 262 15
640 82 910 128 512 377 953 758 1347 297 307 599 509 1006 673 270 109 454
156 713 181 86 9 189 19 227 24 82 10 371 4 500 -10z m-22 -635 c438 -64 808
-225 1145 -497 103 -83 282 -264 362 -366 181 -232 328 -524 409 -817 34 -123
71 -325 71 -389 l0 -43 -46 -1 c-60 0 -82 -22 -85 -82 -1 -25 1 -52 5 -62 10
-23 -23 -32 -90 -23 -37 4 -54 11 -54 21 0 17 -70 54 -103 54 -14 0 -30 7 -37
15 -7 8 -23 15 -36 15 -15 0 -24 -6 -24 -15 0 -18 -9 -19 -33 -1 -25 19 -57 9
-93 -31 -21 -24 -35 -32 -47 -27 -11 4 -25 -1 -37 -11 -18 -16 -19 -15 -34 14
-10 19 -36 40 -68 56 -48 24 -56 26 -91 14 -29 -9 -40 -10 -49 -1 -17 17 -60
15 -86 -4 -13 -9 -31 -13 -42 -9 -25 8 -106 -41 -114 -69 -4 -15 -10 -17 -38
-11 -46 11 -342 12 -400 1 -51 -9 -57 -4 -72 67 -5 21 -12 27 -34 27 -15 0
-33 5 -40 12 -8 8 -64 12 -174 12 -149 1 -169 -1 -228 -23 -80 -30 -82 -31
-89 -78 -6 -37 -7 -38 -52 -41 -38 -2 -52 2 -78 23 -29 25 -42 65 -21 65 15 0
12 12 -9 39 -13 17 -23 22 -39 16 -12 -3 -22 -13 -22 -21 0 -8 -6 -14 -13 -14
-17 0 -52 -42 -49 -57 2 -7 -3 -13 -11 -13 -15 0 -42 -35 -72 -93 -15 -29 -17
-41 -9 -55 13 -20 7 -79 -8 -88 -6 -4 -8 1 -4 13 5 15 0 25 -19 37 -19 13 -24
22 -19 40 4 16 0 28 -13 37 -10 8 -18 19 -19 24 -2 34 -18 96 -25 101 -5 3 -7
9 -4 14 3 5 1 11 -5 15 -5 3 -10 19 -10 36 0 16 -5 29 -11 29 -6 0 -8 7 -5 16
4 9 2 22 -2 28 -5 6 -17 34 -27 61 -10 28 -23 56 -28 62 -5 7 -6 21 -2 30 5
10 7 23 6 28 -2 6 -4 35 -5 66 -1 45 -7 62 -29 88 -15 18 -27 41 -27 51 0 21
-38 62 -51 54 -4 -2 -5 -19 -2 -38 3 -19 1 -36 -6 -40 -7 -5 -11 2 -11 18 0
52 -29 74 -30 23 -1 -19 -3 -18 -14 8 -12 27 -14 28 -21 11 -8 -18 -9 -18 -18
5 -10 23 -11 23 -17 -11 l-6 -35 -8 28 c-10 34 -26 35 -26 3 0 -14 -4 -28 -10
-31 -6 -4 -10 6 -10 22 0 15 -5 35 -10 43 -7 11 -10 7 -10 -17 0 -17 -4 -35
-10 -38 -6 -4 -10 8 -10 29 0 20 -4 36 -10 36 -5 0 -10 -11 -10 -24 0 -14 -4
-28 -10 -31 -6 -4 -10 6 -10 22 0 15 -5 35 -10 43 -7 11 -10 5 -10 -22 0 -21
-4 -38 -10 -38 -5 0 -10 16 -10 35 0 19 -4 35 -9 35 -12 0 -51 -49 -51 -63 0
-6 -15 -33 -34 -61 -37 -54 -51 -135 -28 -158 9 -9 8 -14 -4 -23 -9 -6 -28
-47 -43 -91 -14 -43 -29 -84 -33 -89 -3 -6 -9 -28 -13 -50 -4 -22 -14 -47 -22
-56 -8 -9 -16 -36 -18 -59 -3 -23 -11 -48 -19 -54 -8 -6 -18 -31 -23 -55 -5
-25 -15 -47 -22 -49 -8 -3 -11 0 -7 6 9 15 -34 38 -87 45 -35 5 -49 3 -53 -6
-3 -8 -19 -13 -37 -14 -18 0 -47 -3 -64 -8 -27 -6 -33 -5 -33 9 0 25 -25 19
-58 -15 -25 -26 -36 -30 -73 -27 -35 2 -43 7 -41 20 4 22 -85 63 -103 48 -10
-8 -13 -6 -11 7 0 10 -7 19 -19 21 -10 2 -30 11 -42 19 -13 9 -41 16 -63 17
-35 2 -43 -2 -59 -27 -15 -24 -19 -26 -25 -12 -4 11 0 22 10 30 20 14 11 35
-16 35 -10 0 -20 6 -23 13 -3 9 -9 9 -27 -2 -20 -11 -25 -11 -34 0 -7 8 -30
14 -56 14 -25 0 -51 4 -58 9 -8 6 -19 2 -32 -9 -11 -10 -32 -20 -47 -21 l-26
-3 6 132 c17 378 162 814 379 1137 306 455 731 772 1253 935 138 43 336 84
460 95 123 11 414 3 538 -15z m-1003 -1975 c0 -16 -4 -30 -10 -30 -5 0 -10 14
-10 30 0 17 5 30 10 30 6 0 10 -13 10 -30z m20 -100 c0 -11 -4 -20 -10 -20 -5
0 -10 9 -10 20 0 11 5 20 10 20 6 0 10 -9 10 -20z m10 -79 c0 -11 -4 -23 -10
-26 -6 -4 -10 5 -10 19 0 14 5 26 10 26 6 0 10 -9 10 -19z m18 -133 c-2 -22
-9 -34 -20 -36 -15 -3 -18 4 -18 32 0 30 4 36 21 36 17 0 20 -5 17 -32z m2103
-30 c70 -55 175 -81 225 -55 16 8 44 18 63 22 18 4 42 16 52 26 35 35 105 22
156 -29 22 -22 43 -32 79 -37 112 -15 131 -36 79 -85 -17 -16 -29 -20 -47 -14
-12 4 -34 7 -48 5 -14 -1 -38 7 -52 18 -14 12 -31 21 -37 21 -5 0 -23 13 -38
30 -19 19 -42 31 -70 36 -40 6 -43 5 -53 -22 -13 -34 -26 -44 -61 -44 -15 0
-37 -9 -51 -19 -13 -11 -44 -22 -69 -26 -38 -6 -55 -2 -100 20 -30 15 -69 41
-87 58 -44 42 -101 44 -138 4 -13 -15 -29 -27 -34 -27 -5 0 -26 -11 -46 -25
-20 -14 -43 -25 -51 -25 -8 0 -42 16 -74 35 -33 19 -68 35 -78 35 -10 0 -38
15 -62 33 -42 30 -43 32 -19 35 14 1 59 -3 100 -10 62 -11 77 -17 85 -35 14
-33 30 -29 83 21 53 49 101 76 152 87 70 14 87 10 141 -33z m759 -28 c0 -5 -7
-10 -15 -10 -8 0 -15 5 -15 10 0 6 7 10 15 10 8 0 15 -4 15 -10z m-4226 -45
c-4 -8 -8 -15 -10 -15 -2 0 -4 7 -4 15 0 8 4 15 10 15 5 0 7 -7 4 -15z m1376
-10 c0 -18 -5 -25 -20 -25 -15 0 -20 7 -20 25 0 18 5 25 20 25 15 0 20 -7 20
-25z m2959 -91 c12 -28 7 -44 -15 -44 -9 0 -14 11 -14 35 0 41 12 45 29 9z
m-2429 -9 c0 -24 -2 -25 -70 -25 -68 0 -70 1 -70 25 0 24 2 25 70 25 68 0 70
-1 70 -25z m210 0 c0 -24 -2 -25 -70 -25 -68 0 -70 1 -70 25 0 24 2 25 70 25
68 0 70 -1 70 -25z m210 0 c0 -24 -2 -25 -70 -25 -68 0 -70 1 -70 25 0 24 2
25 70 25 68 0 70 -1 70 -25z m210 0 c0 -24 -2 -25 -70 -25 -61 0 -70 2 -70 18
0 29 8 32 77 32 61 0 63 -1 63 -25z m210 0 c0 -24 -2 -25 -70 -25 -68 0 -70 1
-70 25 0 24 2 25 70 25 68 0 70 -1 70 -25z m-2410 -45 c0 -11 -7 -20 -15 -20
-8 0 -15 -7 -15 -15 0 -8 -4 -15 -9 -15 -18 0 -21 18 -10 44 15 31 49 35 49 6z
m3820 -65 l0 -25 -730 0 -730 0 0 25 0 25 730 0 730 0 0 -25z m-2390 -20 c0
-26 -1 -26 -67 -23 -62 3 -68 5 -71 26 -3 21 0 22 67 22 69 0 71 -1 71 -25z
m220 0 c0 -24 -2 -25 -70 -25 -68 0 -70 1 -70 25 0 24 2 25 70 25 68 0 70 -1
70 -25z m208 3 c-3 -21 -9 -23 -70 -26 -67 -3 -68 -3 -68 23 0 24 2 25 71 25
67 0 70 -1 67 -22z m212 -3 c0 -24 -2 -25 -70 -25 -68 0 -70 1 -70 25 0 24 2
25 70 25 68 0 70 -1 70 -25z m210 0 c0 -24 -2 -25 -70 -25 -68 0 -70 1 -70 25
0 24 2 25 70 25 68 0 70 -1 70 -25z m1100 -69 c0 -3 -5 -17 -11 -33 -8 -22
-12 -24 -19 -13 -17 26 -11 50 10 50 11 0 20 -2 20 -4z m-664 -22 c-3 -9 -6
-20 -6 -25 0 -5 -4 -9 -10 -9 -5 0 -10 11 -10 25 0 16 6 25 16 25 11 0 14 -5
10 -16z m-136 -24 c0 -16 -7 -20 -34 -20 -19 0 -41 -3 -50 -6 -12 -5 -16 0
-16 20 0 25 3 26 50 26 43 0 50 -3 50 -20z m-520 -15 c0 -26 -1 -26 -67 -23
-62 3 -68 5 -71 26 -3 21 0 22 67 22 69 0 71 -1 71 -25z m170 10 c0 -12 -13
-15 -55 -15 -42 0 -55 3 -55 15 0 12 13 15 55 15 42 0 55 -3 55 -15z m180 -6
c0 -18 -5 -20 -47 -17 -36 2 -49 7 -51 21 -3 14 4 17 47 17 45 0 51 -3 51 -21z
m-1490 -24 l0 -35 -75 0 -75 0 0 35 0 35 75 0 75 0 0 -35z m700 5 l0 -30 -80
0 c-77 0 -80 1 -80 23 0 13 3 27 7 30 3 4 39 7 80 7 l73 0 0 -30z m230 5 c0
-24 -2 -25 -65 -25 -36 0 -65 4 -65 9 0 5 -3 16 -6 25 -5 14 4 16 65 16 69 0
71 -1 71 -25z m-1170 -15 l0 -31 -92 3 -93 3 -3 28 -3 27 95 0 96 0 0 -30z
m470 0 l0 -30 -70 0 -70 0 0 30 0 30 70 0 70 0 0 -30z m250 10 c0 -18 -7 -20
-85 -20 -64 0 -85 3 -85 13 0 24 12 27 92 27 71 0 78 -2 78 -20z m-970 -30 l0
-40 -85 0 -85 0 0 33 c0 19 3 37 7 40 3 4 42 7 85 7 l78 0 0 -40z m2525 30 c3
-5 -1 -10 -9 -10 -9 0 -16 5 -16 10 0 6 4 10 9 10 6 0 13 -4 16 -10z m-2755
-35 l0 -35 -68 0 -68 0 4 35 4 35 64 0 64 0 0 -35z m-490 -5 l0 -30 -70 0 -70
0 0 30 0 30 70 0 70 0 0 -30z m280 -5 l0 -35 -100 0 c-92 0 -100 2 -100 19 0
11 -3 26 -6 35 -5 14 7 16 100 16 l106 0 0 -35z m-470 -16 c0 -19 -4 -21 -37
-15 -21 3 -50 6 -65 6 -18 0 -28 5 -28 15 0 12 14 15 65 15 60 0 65 -2 65 -21z
m2880 -8 c0 -14 -53 -20 -263 -27 -145 -5 -200 -10 -204 -19 -3 -10 -76 -13
-313 -14 -292 -1 -309 0 -331 19 l-24 19 30 1 c17 0 35 4 40 9 10 9 347 -2
464 -15 37 -4 56 -2 61 6 5 9 70 14 216 20 318 11 324 11 324 1z m1198 -3 c15
-15 16 -84 2 -93 -19 -12 -40 17 -40 55 0 49 13 63 38 38z m-770 -21 c19 -20
20 -26 9 -41 -11 -16 -22 -17 -65 -11 -29 4 -54 11 -57 15 -10 16 6 36 38 47
48 15 52 15 75 -10z m448 7 c-3 -9 -6 -20 -6 -25 0 -5 -4 -9 -10 -9 -5 0 -10
11 -10 25 0 16 6 25 16 25 11 0 14 -5 10 -16z m178 -10 c3 -9 6 -27 6 -41 0
-20 -4 -24 -22 -21 -26 3 -36 41 -18 64 16 18 26 18 34 -2z m-2446 -26 c-3
-20 -10 -23 -54 -26 -44 -3 -52 0 -57 17 -7 28 -1 31 60 31 51 0 54 -2 51 -22z
m-418 -8 c0 -19 -7 -20 -95 -20 -88 0 -95 1 -95 20 0 19 7 20 95 20 88 0 95
-1 95 -20z m210 0 c0 -18 -7 -20 -60 -20 -53 0 -60 2 -60 20 0 18 7 20 60 20
53 0 60 -2 60 -20z m-930 -15 l0 -25 -105 0 -105 0 0 25 0 25 105 0 105 0 0
-25z m250 -5 l0 -30 -96 0 c-84 0 -95 2 -90 16 3 9 6 22 6 30 0 11 19 14 90
14 l90 0 0 -30z m218 13 c-3 -15 -16 -19 -72 -21 -80 -3 -98 1 -90 23 5 12 23
15 86 15 70 0 79 -2 76 -17z m2808 -5 c-3 -13 -6 -26 -6 -30 0 -5 -4 -8 -10
-8 -5 0 -10 14 -10 30 0 21 5 30 16 30 12 0 15 -6 10 -22z m-3538 -26 c3 -22
2 -23 -69 -20 -64 3 -73 5 -80 26 -9 23 -8 23 69 20 72 -3 77 -5 80 -26z
m2944 -2 c5 -30 4 -30 -44 -30 -47 0 -48 1 -48 30 0 29 2 30 44 30 41 0 44 -2
48 -30z m-150 -20 l4 -41 -46 3 c-44 3 -45 4 -48 41 l-3 37 44 0 45 0 4 -40z
m-1252 -26 c0 -34 -1 -35 -32 -32 -29 3 -33 7 -36 36 -3 31 -2 32 32 32 35 0
36 -1 36 -36z m180 17 c0 -10 3 -33 6 -50 l7 -31 -67 0 -66 0 0 50 0 50 60 0
c52 0 60 -2 60 -19z m430 -41 l0 -60 -49 0 c-48 0 -48 0 -55 38 -13 80 -12 82
49 82 l55 0 0 -60z m350 10 l0 -50 -65 0 -65 0 0 50 0 50 65 0 65 0 0 -50z
m150 5 l0 -45 -45 0 -45 0 0 45 0 45 45 0 45 0 0 -45z m970 25 c0 -5 -7 -10
-15 -10 -8 0 -15 5 -15 10 0 6 7 10 15 10 8 0 15 -4 15 -10z m-1653 -10 c21 0
23 -4 23 -50 l0 -50 -82 0 c-46 0 -88 4 -94 8 -6 4 -14 29 -17 56 l-7 49 76
-7 c43 -3 88 -6 101 -6z m346 3 c2 -5 7 -25 11 -45 l7 -38 -60 0 c-33 0 -62 4
-65 8 -3 5 -3 25 1 45 6 37 6 37 54 37 26 0 50 -3 52 -7z m1011 -28 c6 -17 -9
-29 -24 -20 -5 3 -10 15 -10 25 0 22 25 18 34 -5z m-2264 -25 c0 -45 -1 -45
-97 -34 -49 6 -53 9 -53 34 0 15 3 30 7 33 3 4 37 7 75 7 l68 0 0 -40z m260 5
l0 -35 -95 0 -95 0 0 35 0 35 95 0 95 0 0 -35z m-710 -20 l0 -45 -85 0 c-82 0
-85 1 -85 23 1 63 6 67 91 67 l79 0 0 -45z m2610 5 l0 -40 -49 0 c-35 0 -51 4
-55 16 -10 26 12 52 47 57 17 2 38 5 45 5 8 1 12 -12 12 -38z m-3106 24 c11
-4 16 -19 16 -50 l0 -44 -62 0 c-81 0 -88 5 -81 58 l6 42 52 0 c30 0 60 -3 69
-6z m276 -34 l0 -40 -85 0 c-92 0 -94 2 -79 58 6 20 12 22 85 22 l79 0 0 -40z
m430 10 l0 -30 -70 0 c-67 0 -70 1 -70 23 0 34 6 37 77 37 l63 0 0 -30z m3115
10 c18 -20 17 -20 -16 -20 -19 0 -44 -3 -56 -6 -14 -4 -23 -2 -23 5 0 6 9 11
20 11 11 0 20 7 20 15 0 22 34 18 55 -5z m-4015 -45 c0 -25 -3 -45 -7 -45 -22
1 -43 30 -43 59 0 26 4 31 25 31 23 0 25 -4 25 -45z m3110 -4 c0 -39 0 -39
-50 -50 -67 -15 -67 -15 -74 13 -3 13 -8 31 -12 39 -4 11 8 17 53 24 32 6 64
11 71 12 8 1 12 -13 12 -38z m604 -19 c2 -4 -2 -18 -9 -32 -12 -22 -14 -23
-20 -7 -12 30 13 64 29 39z m-2106 -23 c15 -6 22 -17 22 -34 0 -29 2 -28 -56
-14 -24 6 -44 17 -44 24 0 8 -3 21 -7 30 -5 15 -1 16 28 10 19 -4 44 -11 57
-16z m1292 -19 l0 -40 -50 0 c-46 0 -50 2 -50 24 0 13 -3 31 -6 40 -5 13 3 16
50 16 l56 0 0 -40z m675 20 c3 -5 -1 -10 -9 -10 -9 0 -16 5 -16 10 0 6 4 10 9
10 6 0 13 -4 16 -10z m-2135 -35 c0 -24 -3 -25 -55 -25 -47 0 -55 3 -55 18 0
28 9 32 62 32 45 0 48 -2 48 -25z m362 9 c4 -3 8 -16 8 -28 0 -22 -2 -23 -42
-15 -24 4 -46 8 -50 9 -5 0 -8 12 -8 26 0 25 2 26 42 20 22 -4 45 -9 50 -12z
m879 -16 c4 -16 4 -30 1 -32 -4 -2 -41 -7 -83 -11 l-77 -6 -5 33 c-2 18 -3 37
0 41 3 4 39 7 81 5 73 -3 76 -4 83 -30z m-1841 -8 l0 -30 -80 0 -80 0 0 30 0
30 80 0 80 0 0 -30z m198 -13 l3 -38 -78 3 -78 3 -3 38 -3 38 78 -3 78 -3 3
-38z m949 35 c7 -4 16 -23 19 -41 l7 -32 -64 7 c-35 4 -64 7 -65 8 -1 0 -4 16
-7 34 l-6 32 52 0 c28 0 58 -4 64 -8z m473 -27 l0 -35 -78 0 -79 0 5 29 c4 27
8 30 46 34 109 10 106 11 106 -28z m1470 15 c0 -15 -7 -20 -28 -20 -27 0 -52
15 -52 32 0 4 18 8 40 8 33 0 40 -3 40 -20z m-3314 -20 l-1 -30 -87 0 -88 0 0
30 0 30 89 0 88 0 -1 -30z m634 5 c0 -24 -2 -25 -70 -25 -68 0 -70 1 -70 25 0
24 2 25 70 25 68 0 70 -1 70 -25z m960 -16 l0 -42 -46 7 c-26 3 -55 6 -65 6
-15 0 -19 8 -19 35 l0 35 65 0 65 0 0 -41z m1115 31 c3 -5 -1 -10 -10 -10 -9
0 -13 5 -10 10 3 6 8 10 10 10 2 0 7 -4 10 -10z m-3223 -37 c29 -26 22 -33
-32 -33 -47 0 -50 2 -50 25 0 21 5 25 32 25 17 0 40 -7 50 -17z m288 -3 c0
-19 -7 -20 -95 -20 -88 0 -95 1 -95 20 0 19 7 20 95 20 88 0 95 -1 95 -20z
m1173 -17 c11 -4 17 -15 17 -34 0 -32 -6 -34 -44 -19 -20 7 -26 16 -26 41 0
26 3 30 18 24 9 -4 25 -10 35 -12z m1657 -7 c0 -34 -22 -47 -89 -53 -59 -6
-60 -5 -67 22 -10 40 15 55 93 55 60 0 63 -1 63 -24z m302 -56 l3 -35 -72 -3
c-77 -3 -88 5 -60 40 14 19 108 49 119 39 4 -3 9 -22 10 -41z m-532 25 c7 -8
10 -21 7 -28 -6 -16 -82 -38 -103 -30 -17 6 -18 60 -1 66 27 11 85 6 97 -8z
m-1297 -1 c32 -6 37 -10 31 -28 -9 -29 -7 -29 -53 -16 -30 8 -41 16 -41 30 0
22 6 23 63 14z m1101 0 c25 -10 19 -38 -11 -56 -16 -9 -49 -19 -75 -23 -49 -7
-61 1 -69 50 -4 17 3 21 46 26 77 9 92 9 109 3z m1046 -9 c0 -8 -7 -15 -15
-15 -8 0 -15 7 -15 15 0 8 7 15 15 15 8 0 15 -7 15 -15z m-2907 -17 c19 -30
-8 -48 -73 -48 -73 0 -98 21 -60 52 30 24 117 22 133 -4z m497 -7 l0 -29 -82
2 c-77 1 -83 3 -86 23 -3 19 2 22 45 26 125 9 123 10 123 -22z m461 23 c36 -6
36 -6 26 -41 l-11 -35 -55 7 c-70 9 -71 10 -71 46 0 27 3 29 38 29 20 0 53 -3
73 -6z m1813 -9 c3 -9 -1 -18 -10 -22 -21 -8 -66 8 -72 25 -6 19 74 16 82 -3z
m-2511 -15 c3 -11 2 -21 -1 -24 -3 -3 -47 -6 -99 -6 -75 0 -93 3 -93 15 0 23
27 31 110 32 68 1 79 -1 83 -17z m915 1 c18 -1 22 -7 22 -31 l0 -31 -67 7
c-70 7 -83 15 -83 50 0 19 4 20 53 13 28 -4 62 -8 75 -8z m467 -11 c9 -28 1
-36 -48 -49 -65 -19 -111 -12 -115 17 -7 46 2 52 82 52 66 0 75 -2 81 -20z
m-1837 -12 c-3 -21 -8 -23 -73 -23 -65 0 -70 2 -73 23 -3 21 -1 22 73 22 74 0
76 -1 73 -22z m1592 8 c0 -8 3 -21 6 -30 5 -14 -4 -16 -65 -16 l-71 0 0 30 0
30 65 0 c49 0 65 -3 65 -14z m1000 -40 c0 -32 -2 -34 -46 -40 -109 -14 -139
-2 -95 38 19 18 119 46 134 39 4 -2 7 -19 7 -37z m-3030 14 c0 -18 -7 -20 -75
-20 -68 0 -75 2 -75 20 0 18 7 20 75 20 68 0 75 -2 75 -20z m230 0 c0 -18 -7
-20 -85 -20 -47 0 -85 4 -85 10 0 19 37 29 103 30 60 0 67 -2 67 -20z m1055
-25 c63 -25 71 -41 20 -39 -48 2 -85 21 -85 44 0 11 1 20 3 20 1 0 29 -11 62
-25z m1545 -24 c15 -29 15 -28 -44 -47 -63 -20 -86 -14 -86 20 0 20 6 27 28
32 15 3 32 7 37 9 27 9 55 3 65 -14z m-1710 -1 c18 -10 18 -44 0 -55 -16 -10
-60 15 -60 33 0 33 24 41 60 22z m374 0 c22 0 37 -17 30 -33 -12 -32 -104 -10
-104 25 0 18 4 20 31 14 17 -3 37 -6 43 -6z m-480 -20 c21 -21 -14 -35 -92
-35 l-77 0 -3 29 -4 29 83 -6 c45 -4 87 -11 93 -17z m-1059 -12 c15 -22 14
-24 -6 -40 -25 -21 -48 -23 -84 -6 -31 14 -29 38 5 55 37 19 67 16 85 -9z
m558 8 c30 -7 35 -27 11 -50 -22 -22 -54 -20 -81 6 -27 26 -30 45 -5 51 17 5
25 4 75 -7z m261 -9 c16 -8 17 -11 5 -17 -13 -7 -109 -14 -150 -11 -18 1 -33
27 -24 41 7 11 144 1 169 -13z m931 -9 c-4 -18 -8 -34 -9 -35 -2 -2 -100 19
-104 22 -2 2 -1 13 3 24 5 18 14 21 61 21 l56 0 -7 -32z m233 17 c1 -1 -1 -16
-4 -33 l-6 -32 -69 0 -69 0 0 39 0 38 73 -5 c39 -2 73 -6 75 -7z m692 0 c32
-38 -4 -62 -95 -64 -58 -1 -75 11 -75 51 l0 28 79 0 c56 0 82 -4 91 -15z m533
-25 c-12 -11 -73 -21 -73 -12 0 5 17 18 38 30 32 18 37 19 40 6 2 -9 0 -20 -5
-24z m-2809 24 c9 -3 16 -16 16 -29 0 -13 -7 -26 -16 -29 -43 -16 -154 5 -154
29 0 16 22 23 90 28 25 2 46 4 47 5 1 1 8 -1 17 -4z m-202 -22 c6 -6 8 -18 4
-27 -5 -13 -19 -15 -73 -13 -61 3 -68 5 -71 25 -2 16 3 23 20 26 35 8 108 1
120 -11z m2233 4 c18 -13 18 -15 2 -40 -16 -24 -22 -26 -98 -26 -88 0 -102 10
-81 56 11 22 17 24 85 24 46 0 80 -5 92 -14z m-1152 -24 c27 -23 22 -44 -10
-40 -24 2 -29 8 -31 37 -4 35 3 35 41 3z m907 -6 c0 -19 -4 -37 -8 -40 -4 -2
-36 -2 -70 1 l-62 6 0 33 0 34 70 0 70 0 0 -34z m1100 -11 c0 -8 -4 -15 -10
-15 -5 0 -10 7 -10 15 0 8 5 15 10 15 6 0 10 -7 10 -15z m-1817 -12 c14 -8 7
-64 -9 -70 -21 -8 -91 14 -97 31 -3 8 1 23 10 35 12 18 21 21 51 15 20 -4 40
-9 45 -11z m1512 -3 c18 -19 17 -20 -26 -39 -24 -11 -56 -23 -71 -26 -24 -6
-28 -3 -34 20 -8 32 0 40 46 53 52 15 65 14 85 -8z m-1847 -37 c-7 -36 -108
-43 -108 -9 0 19 16 24 68 25 36 1 43 -2 40 -16z m2000 -5 c-2 -18 -12 -24
-43 -29 -22 -4 -41 -6 -43 -4 -5 4 70 55 81 55 5 0 7 -10 5 -22z m-1424 -20
c12 -35 4 -43 -45 -41 -62 3 -109 21 -109 43 0 25 14 29 85 27 55 -2 60 -4 69
-29z m-1205 4 c15 -28 -6 -42 -62 -42 -58 0 -87 14 -87 40 0 18 7 20 70 20 57
0 71 -3 79 -18z m468 3 c9 -25 -2 -28 -90 -32 -86 -4 -114 4 -104 31 9 23 185
24 194 1z m1809 3 c10 -16 -30 -45 -74 -53 -70 -11 -126 32 -69 55 33 13 135
12 143 -2z m-2458 -20 c35 -30 -79 -52 -142 -28 -27 10 -35 34 -13 44 19 9
140 -4 155 -16z m395 15 c9 -2 17 -11 17 -19 0 -12 -15 -14 -82 -12 -70 3 -83
6 -86 21 -3 15 4 17 65 16 37 -1 76 -4 86 -6z m-620 -22 c12 -12 -30 -31 -66
-31 -25 0 -67 26 -67 41 0 12 120 3 133 -10z m1789 3 c4 -3 8 -11 8 -19 0 -19
-84 -31 -116 -16 -21 9 -23 14 -13 32 10 19 16 21 62 15 28 -4 54 -9 59 -12z
m663 -4 c9 -10 15 -26 12 -35 -9 -22 -159 -22 -177 0 -24 29 9 43 131 54 9 0
24 -8 34 -19z m-1227 -18 c37 -4 42 -7 42 -29 0 -23 -3 -25 -32 -20 -60 10
-88 25 -88 48 0 16 4 19 18 13 9 -4 36 -9 60 -12z m792 -9 c13 -12 13 -15 0
-23 -17 -11 -93 -13 -140 -4 -35 8 -51 31 -29 45 20 13 151 -1 169 -18z m224
8 c10 -11 13 -22 8 -25 -13 -8 -182 -20 -182 -13 0 3 5 18 12 32 10 23 16 25
78 25 53 0 70 -4 84 -19z m-2000 -60 c22 -3 41 -12 43 -18 4 -10 -16 -11 -79
-6 -74 5 -97 14 -98 34 0 7 61 2 134 -10z m806 4 c0 -9 -7 -18 -16 -22 -25
-10 -167 10 -172 25 -3 9 20 12 92 12 80 0 96 -3 96 -15z m368 -3 c58 -4 62
-6 62 -29 0 -21 -4 -24 -22 -20 -13 3 -45 9 -71 12 -31 5 -51 14 -57 26 -14
26 -12 32 8 24 9 -5 45 -10 80 -13z m1373 8 c35 -19 22 -37 -33 -43 -29 -4
-63 -9 -75 -13 -20 -5 -23 -3 -23 20 0 18 7 30 23 36 30 12 84 12 108 0z
m-2201 -15 c0 -12 -14 -15 -64 -15 -68 0 -96 6 -96 21 0 5 36 9 80 9 64 0 80
-3 80 -15z m2025 -25 c0 -33 -53 -60 -116 -60 -52 0 -83 18 -77 46 4 23 79 43
148 41 41 -2 45 -4 45 -27z m-2605 10 c-20 -13 -60 -13 -60 0 0 6 17 10 38 10
27 0 33 -3 22 -10z m3190 -20 c-80 -66 -194 -124 -340 -170 -81 -26 -155 -52
-166 -58 -35 -20 45 -14 103 8 82 31 134 40 176 30 48 -10 53 -16 37 -35 -22
-26 -81 -36 -263 -45 -98 -5 -191 -12 -208 -15 -36 -8 -37 -29 -4 -51 28 -18
44 -18 241 12 151 23 217 14 222 -27 5 -46 -30 -51 -373 -59 -311 -7 -363 -13
-450 -52 -26 -11 12 -14 285 -19 280 -6 389 -13 502 -34 26 -5 43 0 82 25 26
17 51 28 54 25 4 -3 -2 -22 -13 -42 -40 -73 -302 -207 -599 -307 -219 -74
-252 -80 -406 -75 -202 7 -436 3 -530 -10 -88 -12 -103 -11 -200 9 -121 24
-113 22 -333 95 -93 31 -185 65 -205 77 -90 50 -166 97 -284 176 -124 83 -128
87 -128 121 0 50 -12 64 -46 57 -39 -8 -122 38 -147 82 -22 37 -11 41 27 11
23 -18 44 -22 129 -25 56 -2 224 -10 372 -18 149 -9 293 -16 320 -16 50 1 50
1 28 19 -24 20 -44 22 -557 45 l-279 12 -46 50 -46 49 195 9 c107 4 197 10
199 12 3 2 -6 15 -19 29 l-24 25 -218 -2 c-185 -3 -220 -1 -228 12 -5 8 -10
18 -10 22 0 8 796 16 821 8 9 -3 38 -32 65 -65 111 -137 175 -218 183 -232 5
-10 15 -13 30 -8 28 9 21 20 -83 145 -79 93 -132 179 -124 199 1 5 46 -3 98
-18 93 -26 95 -27 92 -55 -2 -17 1 -25 7 -21 6 3 11 14 11 23 0 12 12 5 39
-24 32 -32 59 -47 133 -72 195 -66 386 -95 643 -96 290 -1 523 36 860 139 108
32 346 123 385 145 29 17 25 9 -10 -20z m-1730 -79 c227 -57 287 -66 465 -65
284 0 711 42 820 80 52 18 55 18 55 -5 0 -13 -11 -23 -32 -30 -44 -14 -347
-66 -473 -82 -131 -16 -438 -16 -545 -1 -146 22 -371 70 -471 102 -156 48
-207 107 -57 64 46 -13 153 -42 238 -63z m211 68 c28 10 29 9 29 -20 0 -33 2
-33 -73 -18 -50 10 -57 15 -57 35 0 23 1 23 36 8 27 -11 43 -13 65 -5z m209
-22 c0 -27 -2 -28 -37 -22 -57 10 -63 13 -63 32 0 15 9 18 50 18 48 0 50 -1
50 -28z m471 11 c12 -19 -8 -25 -113 -33 -88 -6 -99 -5 -105 11 -4 11 1 22 13
31 24 19 193 10 205 -9z m603 16 c9 -3 16 -12 16 -20 0 -17 -37 -37 -56 -30
-20 8 -17 44 4 49 9 3 18 5 19 6 1 0 8 -2 17 -5z m-903 -14 c24 0 29 -4 29
-25 0 -24 -3 -25 -60 -25 l-60 0 0 31 c0 30 2 31 31 25 17 -3 44 -6 60 -6z
m32 -935 c274 -32 606 -109 1052 -242 307 -92 463 -134 570 -154 114 -21 395
-40 453 -32 l32 5 0 -271 0 -271 -204 0 c-226 0 -378 16 -546 56 -89 21 -532
158 -596 184 -43 17 -272 82 -408 116 -442 109 -707 124 -1023 59 -147 -30
-430 -115 -620 -186 -398 -148 -681 -224 -967 -259 -120 -15 -320 -8 -393 15
l-53 16 0 265 0 265 52 -8 c97 -15 415 -8 513 11 127 25 289 70 435 121 437
155 948 288 1220 318 92 10 368 6 483 -8z m2621 -134 c-37 -93 -112 -208 -160
-249 -42 -35 -44 -38 -27 -52 10 -8 67 -66 128 -129 l109 -114 -65 -24 c-106
-41 -188 -62 -301 -78 -60 -8 -115 -15 -123 -15 -13 0 -15 33 -15 214 l0 213
-57 6 c-73 8 -181 47 -247 90 l-51 32 140 6 c229 11 409 42 555 97 52 20 104
42 115 49 11 7 20 13 22 13 1 0 -9 -27 -23 -59z m-5741 5 c138 -57 338 -93
577 -104 l145 -7 -65 -37 c-88 -50 -189 -87 -247 -91 l-48 -3 -3 -212 -2 -212
-28 0 c-96 0 -468 97 -460 120 4 11 70 83 167 183 71 73 75 79 56 89 -35 19
-95 91 -130 153 -46 81 -79 169 -63 162 7 -3 53 -22 101 -41z"/>
<path d="M3413 6973 l-93 -4 0 -44 c0 -51 13 -58 32 -18 8 16 25 30 42 35 17
4 31 6 32 5 1 -1 4 -64 8 -139 6 -131 6 -137 -14 -143 -11 -3 -20 -11 -20 -17
0 -7 20 -9 61 -4 34 3 74 6 88 6 l26 1 -27 15 c-27 14 -28 18 -28 88 0 40 -3
101 -6 135 -7 61 -7 61 20 61 26 0 59 -25 68 -51 10 -29 20 1 13 40 l-7 41
-51 -2 c-29 -1 -94 -4 -144 -5z"/>
<path d="M3690 6972 c0 -6 9 -12 20 -15 19 -5 20 -11 14 -79 -19 -211 -17
-203 -41 -206 -13 -2 -23 -7 -23 -11 0 -11 270 -35 280 -25 5 5 12 29 15 54
l7 45 -29 -34 c-23 -26 -39 -34 -76 -38 -41 -5 -48 -3 -54 15 -5 12 -7 42 -5
67 3 35 8 45 19 43 16 -3 27 -18 38 -52 9 -30 14 -15 24 64 11 86 6 104 -17
58 -10 -18 -25 -34 -35 -36 -16 -3 -18 3 -15 55 3 54 5 58 28 61 37 3 73 -19
92 -58 13 -27 18 -31 23 -19 3 9 5 34 3 55 l-3 39 -85 7 c-47 4 -106 9 -132
13 -27 3 -48 2 -48 -3z"/>
<path d="M3175 6945 c-49 -12 -49 -13 -24 -23 33 -13 52 -82 53 -186 1 -63 -1
-70 -26 -89 -30 -23 -72 -18 -83 10 -11 29 -45 195 -45 225 0 14 6 28 13 31 6
3 -17 2 -53 0 -82 -7 -106 -18 -69 -32 22 -8 27 -18 33 -63 14 -106 37 -178
65 -199 21 -17 36 -20 85 -17 52 4 63 9 89 38 28 31 29 37 24 94 -3 34 -11 90
-16 126 -9 54 -8 67 4 76 16 12 20 25 8 23 -5 -1 -30 -7 -58 -14z"/>
<path d="M2686 6828 l-118 -40 6 -36 c7 -46 26 -67 26 -29 0 29 31 67 54 67
10 0 29 -44 57 -130 43 -127 43 -130 24 -145 -28 -20 -10 -19 66 6 73 25 95
39 58 39 -24 0 -28 8 -64 123 -21 67 -38 127 -39 132 -2 21 56 17 80 -6 19
-18 24 -19 24 -6 0 32 -20 67 -37 66 -10 0 -71 -19 -137 -41z"/>
<path d="M4263 6851 c-80 -49 -106 -151 -61 -233 79 -140 296 -99 322 61 11
70 -34 149 -101 177 -47 20 -122 18 -160 -5z m159 -28 c36 -32 13 -172 -38
-233 -50 -59 -124 -23 -124 61 0 48 32 134 61 165 27 28 74 32 101 7z"/>
<path d="M4636 6771 c-3 -5 1 -11 9 -15 23 -9 18 -34 -25 -126 -57 -121 -66
-134 -92 -141 -19 -5 -11 -11 52 -42 72 -35 106 -41 65 -11 -19 14 -19 15 8
70 34 69 60 72 65 6 2 -23 6 -42 10 -42 9 0 72 143 66 149 -2 2 -15 -6 -28
-19 -18 -16 -32 -21 -50 -16 l-25 6 24 52 c14 29 29 54 35 56 5 2 26 -6 45
-18 32 -20 38 -31 48 -85 3 -17 6 -15 20 12 27 51 22 61 -45 92 -70 32 -159
72 -170 78 -4 2 -9 -1 -12 -6z"/>
<path d="M2414 6721 c-65 -30 -95 -57 -52 -46 23 6 28 -1 68 -87 75 -161 74
-157 54 -179 -24 -27 -13 -24 74 18 68 33 74 37 49 41 -25 3 -34 16 -83 119
-30 64 -54 120 -54 126 0 5 8 16 18 23 30 23 -8 16 -74 -15z"/>
<path d="M2190 6604 c-41 -25 -96 -57 -123 -71 l-47 -25 22 -39 c25 -46 42
-51 33 -11 -7 34 23 79 47 70 8 -4 43 -55 78 -114 52 -89 61 -111 51 -126 -6
-10 -11 -20 -11 -23 0 -8 92 41 120 64 l25 20 -26 1 c-23 0 -35 15 -89 108
-35 59 -65 111 -68 116 -12 21 70 37 83 16 3 -5 13 -10 22 -10 12 0 12 5 -6
32 -11 18 -24 34 -28 35 -5 2 -42 -18 -83 -43z"/>
<path d="M5047 6531 c-23 -39 -23 -59 1 -38 22 20 51 21 75 3 17 -13 13 -21
-56 -122 -65 -95 -78 -109 -101 -107 -14 1 -26 -1 -26 -5 0 -6 111 -82 132
-91 5 -2 4 6 -3 17 -12 19 -6 32 61 131 41 61 80 111 86 111 24 0 46 -38 39
-69 -8 -39 13 -34 38 8 16 27 15 29 -1 43 -22 20 -199 137 -215 144 -7 2 -20
-9 -30 -25z"/>
<path d="M1930 6437 c0 -8 -20 -22 -45 -32 -69 -26 -94 -90 -60 -155 17 -34
15 -33 145 -34 95 -1 95 -1 98 -27 7 -57 -57 -83 -124 -51 -24 12 -44 18 -44
13 0 -5 15 -27 33 -49 32 -42 57 -53 57 -28 0 8 17 21 38 29 69 28 103 92 78
151 -20 48 -59 61 -147 48 -106 -16 -148 9 -99 58 26 26 80 30 107 8 7 -5 17
-8 24 -6 6 2 -4 22 -25 47 -20 23 -36 36 -36 28z"/>
<path d="M5376 6323 c5 -24 -5 -39 -71 -113 -91 -102 -104 -112 -127 -104 -10
3 -18 3 -18 1 0 -10 194 -177 205 -177 16 0 81 57 73 65 -3 4 -16 1 -28 -5
-13 -7 -36 -9 -53 -6 -33 7 -77 42 -77 61 0 21 66 89 78 81 15 -9 15 -41 2
-67 -20 -36 8 -19 59 37 55 60 66 86 26 60 -27 -18 -61 -21 -70 -6 -7 12 62
90 80 90 8 0 23 -12 35 -27 17 -22 21 -37 17 -70 -2 -24 -1 -43 3 -43 4 0 20
17 36 37 l28 36 -41 36 c-23 20 -68 60 -102 89 -58 52 -61 53 -55 25z"/>
<path d="M1667 6226 c-44 -40 -46 -47 -9 -40 23 4 35 -3 82 -51 l55 -56 -40 6
c-106 15 -202 22 -216 14 -9 -4 -28 -24 -43 -43 l-27 -36 31 7 c29 5 38 -1
117 -80 79 -79 85 -89 80 -116 -8 -41 1 -39 46 7 43 44 47 56 12 40 -24 -11
-30 -7 -101 63 -41 40 -70 75 -64 77 6 2 78 -4 161 -13 82 -10 153 -15 157
-11 4 5 -39 52 -95 105 -99 94 -107 105 -104 144 3 23 1 22 -42 -17z"/>
<path d="M5544 5990 c-76 -55 -93 -145 -44 -225 28 -45 101 -89 135 -81 38 10
30 23 -17 29 -75 10 -109 77 -73 146 23 46 90 93 140 99 39 4 48 1 75 -26 32
-33 38 -64 18 -107 -6 -14 -9 -28 -5 -31 8 -9 77 48 77 64 0 7 -5 10 -10 7 -6
-4 -17 11 -26 32 -33 81 -94 123 -177 123 -43 0 -61 -5 -93 -30z"/>
<path d="M1376 5911 c-50 -65 -56 -77 -28 -62 22 12 33 6 150 -92 75 -62 83
-72 77 -96 -6 -23 -5 -24 9 -11 29 30 96 115 96 123 0 4 -9 3 -21 -4 -24 -12
-37 -5 -163 99 -67 55 -75 65 -66 82 22 40 -8 18 -54 -39z"/>
<path d="M5905 5753 c0 -24 -13 -35 -113 -95 -92 -55 -117 -67 -128 -57 -31
25 -24 -2 16 -65 44 -69 60 -82 53 -42 -4 20 3 29 37 51 64 41 67 41 89 -4 12
-22 21 -44 21 -48 0 -5 -24 -22 -54 -38 -48 -26 -56 -28 -72 -15 -16 13 -17
13 -12 -1 3 -8 23 -42 44 -75 37 -57 39 -58 44 -31 4 22 25 40 100 88 100 63
141 80 148 61 2 -7 8 -12 14 -12 12 0 -46 107 -74 135 -19 20 -19 20 -13 -7 7
-27 2 -32 -82 -82 -8 -4 -22 9 -39 35 l-26 42 23 18 c43 33 79 44 100 31 27
-17 24 -4 -12 48 -16 25 -34 55 -39 68 -13 30 -26 28 -25 -5z"/>
<path d="M1112 5521 c-67 -117 -75 -139 -42 -119 22 14 12 19 173 -72 67 -38
78 -48 74 -67 -2 -13 -1 -23 4 -23 8 0 139 226 139 240 0 7 -75 60 -85 60 -2
0 5 -18 16 -40 19 -37 20 -44 8 -77 -22 -56 -39 -61 -93 -29 -40 23 -45 30
-35 43 9 10 24 13 46 10 18 -3 33 -2 33 2 0 9 -123 81 -140 81 -9 0 -6 -8 8
-23 24 -25 30 -67 10 -67 -19 1 -91 44 -95 57 -2 6 10 28 28 48 29 32 36 36
66 30 18 -3 33 -2 33 2 0 7 -72 53 -82 53 -2 0 -32 -49 -66 -109z"/>
<path d="M6120 5385 c0 -22 -11 -30 -77 -60 -42 -20 -98 -43 -124 -52 -47 -17
-49 -17 -63 2 -26 35 -25 12 2 -45 23 -50 26 -52 29 -28 3 18 14 31 36 41 87
41 151 67 155 63 2 -3 -28 -65 -67 -140 -39 -74 -71 -137 -71 -140 0 -14 34
-4 107 30 43 20 100 45 127 55 46 19 50 19 67 3 26 -23 25 -2 -3 56 l-21 45
-6 -30 c-5 -25 -17 -35 -71 -61 -36 -17 -66 -30 -68 -29 -2 1 22 49 53 105
l56 103 -23 53 c-25 58 -38 68 -38 29z"/>
<path d="M990 5239 c-16 -18 -45 -72 -65 -122 -34 -86 -38 -114 -13 -89 19 19
36 15 153 -32 99 -39 111 -47 116 -73 5 -27 7 -25 33 31 14 33 29 71 32 85 5
25 5 25 -10 6 -16 -19 -17 -19 -71 0 -31 10 -54 23 -52 28 2 6 39 20 83 32 76
20 80 22 101 65 13 24 22 45 20 46 -1 1 -42 -8 -90 -21 l-88 -23 -6 30 c-14
68 -95 89 -143 37z m82 -66 c19 -17 24 -59 9 -81 -6 -10 -19 -8 -64 10 -61 25
-65 32 -41 66 18 27 69 30 96 5z"/>
<path d="M6103 4975 c-17 -7 -46 -33 -62 -56 -70 -96 -19 -242 94 -266 77 -17
142 8 189 71 28 37 29 126 1 181 -37 73 -140 106 -222 70z m182 -79 c30 -13
35 -20 35 -48 0 -52 -23 -75 -96 -98 -94 -28 -151 -24 -176 14 -53 78 127 178
237 132z"/>
<path d="M920 4899 c-109 -44 -141 -203 -58 -285 95 -94 254 -50 287 80 14 57
2 118 -31 153 -48 53 -137 76 -198 52z m137 -103 c76 -36 93 -77 48 -121 -29
-30 -84 -33 -162 -10 -91 27 -127 85 -83 133 30 32 126 31 197 -2z"/>
<path d="M6372 4578 c-7 -7 -45 -16 -85 -20 -39 -4 -98 -11 -130 -14 -54 -6
-59 -5 -64 15 -7 28 -23 27 -22 -1 0 -13 8 -77 17 -143 l18 -120 57 -3 c60 -3
78 11 27 21 -40 9 -66 37 -74 83 -10 52 2 59 124 73 139 15 146 15 155 -11 14
-44 16 5 3 70 -11 51 -16 60 -26 50z"/>
<path d="M980 4496 c0 -3 18 -17 40 -31 39 -24 40 -27 40 -80 l0 -55 -72 1
c-40 1 -102 4 -138 8 -58 5 -65 9 -68 29 -5 34 -22 26 -22 -10 0 -18 -3 -57
-6 -85 -4 -34 -3 -53 3 -53 6 0 13 9 16 20 5 19 10 20 89 14 178 -14 192 -17
198 -44 10 -41 18 -11 24 95 4 55 9 116 12 136 4 26 1 38 -9 42 -25 9 -107 20
-107 13z"/>
<path d="M6180 4207 c-62 -32 -82 -75 -78 -161 4 -66 5 -69 50 -112 45 -42 49
-44 110 -44 109 0 172 62 172 170 1 72 -25 118 -84 148 -57 28 -115 28 -170
-1z m194 -91 c31 -20 43 -59 28 -91 -14 -31 -79 -49 -153 -42 -73 6 -111 25
-123 60 -13 35 -1 56 45 80 43 23 164 19 203 -7z"/>
<path d="M955 4140 c3 -5 14 -10 24 -10 10 0 30 -9 45 -21 22 -17 26 -28 26
-70 0 -58 6 -56 -157 -63 l-112 -5 -10 27 c-7 21 -10 7 -10 -65 -1 -51 1 -93
4 -93 3 0 10 11 15 25 8 21 16 25 53 25 24 0 85 3 136 7 89 6 92 5 98 -15 3
-12 9 -22 15 -22 8 0 2 248 -8 278 -2 8 -24 12 -64 12 -38 0 -59 -4 -55 -10z"/>
<path d="M6180 3818 c-49 -13 -106 -71 -120 -122 -6 -22 -10 -68 -8 -101 l3
-60 44 -11 c24 -5 49 -18 56 -27 13 -18 16 -10 41 111 5 26 -4 29 -21 6 -9
-13 -21 -15 -53 -9 -41 7 -42 8 -42 44 0 26 7 44 23 59 42 40 183 25 240 -26
24 -22 23 -92 -3 -125 -11 -14 -36 -31 -55 -37 -47 -16 -44 -26 11 -34 71 -9
78 -8 65 8 -9 10 -6 25 10 62 31 73 24 162 -16 205 -53 55 -114 75 -175 57z"/>
<path d="M1030 3801 l-45 -7 35 -15 c44 -20 60 -39 70 -84 9 -41 1 -48 -67
-60 -41 -7 -43 -6 -43 19 0 20 7 29 28 37 45 18 6 23 -70 9 -76 -15 -99 -30
-44 -30 25 0 38 -6 46 -19 15 -28 14 -29 -32 -36 -24 -3 -51 -9 -60 -11 -13
-4 -18 3 -24 30 -9 50 2 85 31 98 13 6 22 14 20 18 -5 7 -82 -3 -91 -12 -5 -6
33 -232 43 -258 4 -11 7 -8 12 9 8 28 45 41 187 62 79 11 88 11 99 -4 7 -9 15
-17 17 -17 3 0 -5 60 -18 133 -13 72 -24 135 -24 140 0 7 0 7 -70 -2z"/>
<path d="M855 3378 c4 -18 12 -44 18 -58 l11 -25 4 28 c3 25 7 27 50 27 26 0
71 -3 100 -7 52 -6 52 -6 35 -26 -10 -11 -45 -42 -77 -70 -53 -43 -61 -47 -71
-33 -24 32 -23 15 2 -61 20 -59 28 -72 33 -57 4 10 62 66 128 124 66 58 121
110 121 117 1 14 -23 19 -189 34 -76 6 -134 17 -148 26 -24 15 -24 14 -17 -19z"/>
<path d="M5997 3400 c-18 -43 -55 -160 -50 -160 3 0 11 8 18 17 11 14 18 15
56 4 24 -7 51 -18 59 -24 30 -23 130 -148 130 -163 0 -25 18 -15 29 17 17 48
15 65 -5 48 -14 -11 -23 -6 -65 38 -27 28 -49 56 -49 61 0 5 24 12 53 16 80 9
97 8 97 -9 0 -37 20 -9 40 56 19 64 20 100 2 73 -8 -13 -176 -49 -214 -47 -46
3 -86 30 -90 60 -3 19 -6 23 -11 13z"/>
<path d="M1490 2445 c0 -3 14 -32 30 -65 l30 -60 -30 -60 c-16 -33 -30 -64
-30 -69 0 -11 45 2 90 26 36 19 69 16 136 -11 32 -13 61 -23 63 -21 2 2 -11
34 -28 70 l-31 66 31 61 c17 33 28 62 25 65 -3 3 -36 -7 -74 -22 l-68 -27 -64
26 c-64 26 -80 30 -80 21z"/>
<path d="M5422 2386 l31 -63 -32 -68 c-17 -38 -30 -70 -27 -72 2 -2 31 7 65
21 75 32 94 32 165 1 66 -29 70 -23 29 59 l-27 55 27 55 c26 52 33 76 22 76
-3 0 -33 -11 -68 -25 l-64 -26 -68 26 c-37 14 -71 25 -76 25 -5 0 5 -29 23
-64z"/>
<path d="M2110 1997 c-47 -16 -76 -34 -68 -42 3 -4 17 -1 30 6 12 7 50 21 83
30 52 15 55 18 25 18 -19 -1 -51 -6 -70 -12z"/>
<path d="M4975 2001 c11 -5 40 -15 65 -24 25 -8 54 -18 65 -23 19 -7 19 -7 2
13 -20 23 -80 43 -123 42 -25 0 -26 -2 -9 -8z"/>
<path d="M2210 1966 c-49 -13 -120 -52 -120 -66 0 -5 24 2 53 15 28 13 75 30
102 36 28 7 54 17 60 21 14 12 -43 8 -95 -6z"/>
<path d="M4854 1971 c4 -6 15 -11 24 -11 9 0 49 -12 87 -26 39 -14 79 -29 90
-32 38 -11 -2 24 -53 46 -58 25 -159 41 -148 23z"/>
<path d="M2308 1929 c-65 -9 -124 -36 -153 -70 l-20 -22 20 8 c117 47 199 75
220 75 13 0 27 5 30 10 7 11 -15 11 -97 -1z"/>
<path d="M4753 1932 c4 -5 25 -12 48 -16 22 -4 79 -22 127 -41 47 -19 88 -35
91 -35 2 0 -6 11 -19 25 -13 14 -46 33 -74 44 -59 22 -182 39 -173 23z"/>
<path d="M2360 1881 c-70 -22 -110 -43 -134 -70 -25 -28 -18 -27 83 14 48 19
111 39 141 46 84 17 94 28 25 28 -33 0 -85 -8 -115 -18z"/>
<path d="M4640 1891 c8 -5 32 -13 54 -17 42 -7 98 -25 206 -68 l65 -26 -36 34
c-49 45 -137 78 -229 83 -53 3 -71 1 -60 -6z"/>
<path d="M2490 1850 c-81 -14 -230 -92 -230 -121 0 -5 26 4 58 20 66 33 247
91 285 91 14 0 29 5 32 10 7 12 -77 12 -145 0z"/>
<path d="M4522 1854 c3 -3 36 -12 73 -19 36 -8 118 -35 181 -61 63 -25 117
-44 120 -41 9 8 -59 55 -118 81 -30 13 -81 29 -113 35 -62 12 -152 15 -143 5z"/>
<path d="M2605 1810 c-76 -12 -134 -29 -195 -60 -109 -55 -140 -102 -36 -56
82 36 238 85 341 106 l90 18 -75 0 c-41 0 -97 -4 -125 -8z"/>
<path d="M4449 1800 c103 -21 294 -82 354 -112 46 -23 62 -15 27 13 -87 69
-211 108 -365 114 l-110 5 94 -20z"/>
<path d="M2725 5840 c-3 -5 9 -16 28 -23 37 -16 26 5 182 -357 138 -321 157
-361 169 -357 6 2 41 71 77 153 215 487 257 564 304 564 8 0 15 7 15 15 0 13
-20 15 -120 15 -100 0 -120 -2 -120 -15 0 -10 10 -15 28 -15 16 0 37 -9 47
-20 22 -24 17 -53 -23 -141 -16 -35 -53 -119 -82 -186 -29 -68 -56 -120 -61
-117 -5 3 -9 10 -9 15 0 6 -31 81 -69 168 -98 223 -110 259 -91 271 8 5 30 10
48 10 22 0 32 5 32 15 0 13 -26 15 -174 15 -102 0 -177 -4 -181 -10z"/>
<path d="M3525 5840 c-5 -9 11 -15 60 -22 40 -6 45 -38 45 -333 0 -295 -5
-327 -45 -333 -49 -7 -65 -13 -60 -22 8 -13 385 -13 385 -1 0 5 -17 12 -37 16
-21 4 -44 11 -50 17 -10 8 -13 84 -13 318 0 339 -1 334 64 342 16 1 31 9 34
16 5 15 -373 18 -383 2z"/>
<path d="M3967 5843 c-4 -3 -7 -49 -7 -100 0 -81 2 -94 16 -91 9 2 22 20 29
41 24 71 78 107 163 107 l32 0 0 -314 c0 -239 -3 -316 -12 -324 -7 -6 -30 -13
-50 -17 -81 -15 -18 -25 163 -25 180 0 239 10 149 25 -24 4 -44 14 -50 25 -6
11 -10 142 -10 324 l0 306 28 0 c87 -1 152 -45 170 -114 4 -16 13 -31 20 -34
9 -3 12 23 12 97 l0 101 -323 0 c-178 0 -327 -3 -330 -7z"/>
<path d="M3040 2591 c0 -4 28 -37 63 -73 67 -70 86 -78 188 -78 39 0 63 5 73
16 21 21 20 34 -2 34 -40 0 -181 42 -249 75 -40 19 -73 30 -73 26z"/>
<path d="M2670 2345 c-30 -13 -65 -24 -77 -25 -35 0 -28 -14 15 -28 64 -23
106 -28 140 -17 36 11 40 22 15 40 -15 11 -15 13 5 24 13 7 20 16 17 22 -10
16 -58 9 -115 -16z"/>
<path d="M2885 2195 c-5 -2 -37 -12 -70 -22 l-60 -18 150 -7 c83 -3 204 -9
270 -13 166 -10 141 8 -57 40 -146 23 -208 29 -233 20z"/>
<path d="M3553 2191 c-61 -3 -114 -9 -118 -13 -15 -15 102 -23 325 -23 232 0
280 6 280 35 0 11 -287 11 -487 1z"/>
<path d="M3495 2122 c-25 -6 -27 -9 -12 -15 29 -11 211 -21 243 -13 27 7 27 8
9 18 -23 13 -197 20 -240 10z"/>
<path d="M2828 2113 c-16 -2 -28 -9 -28 -14 0 -5 49 -9 113 -9 87 1 108 3 93
12 -21 12 -134 19 -178 11z"/>
<path d="M3490 2053 c0 -22 200 -31 285 -14 30 7 9 9 -85 10 -69 1 -142 4
-162 7 -23 4 -38 3 -38 -3z"/>
<path d="M2819 2020 c24 -21 94 -28 120 -11 15 10 -5 15 -94 26 l-50 6 24 -21z"/>
<path d="M3937 1732 c-22 -25 -21 -49 2 -62 29 -15 49 -12 71 10 19 19 20 19
20 1 0 -29 -24 -42 -71 -39 -32 2 -43 -1 -41 -10 1 -7 -4 -23 -13 -35 -20 -29
-19 -43 6 -68 16 -16 31 -20 70 -18 60 3 81 -12 48 -35 -31 -21 -51 -20 -82 4
-52 41 -84 16 -38 -30 23 -24 38 -30 71 -30 49 0 94 23 109 57 16 34 14 47 -9
68 -16 14 -29 16 -75 10 -51 -6 -55 -5 -55 14 0 18 6 21 40 21 22 0 40 -4 40
-10 0 -13 47 -13 55 0 3 5 -3 18 -13 28 -13 13 -17 24 -11 33 16 25 9 65 -14
87 -29 28 -87 29 -110 4z m43 -32 c0 -5 -4 -10 -10 -10 -5 0 -10 5 -10 10 0 6
5 10 10 10 6 0 10 -4 10 -10z"/>
<path d="M3090 1675 c0 -28 -5 -37 -24 -45 -14 -5 -35 -23 -47 -39 -13 -17
-31 -31 -41 -31 -11 0 -18 -7 -18 -20 0 -11 6 -20 14 -20 7 0 16 -13 19 -30
12 -57 81 -92 115 -58 9 9 15 9 24 0 22 -22 75 -14 97 14 39 49 17 114 -37
114 -29 0 -28 -26 1 -50 21 -18 21 -20 5 -36 -14 -14 -20 -15 -32 -4 -9 7 -16
19 -16 26 0 23 -47 17 -53 -7 -8 -29 -51 -22 -55 9 -3 20 0 22 47 22 44 0 51
3 51 20 0 17 -7 20 -46 20 -40 0 -45 2 -34 15 20 24 76 30 105 11 23 -15 65
-22 65 -10 0 19 -25 44 -54 54 -29 9 -35 17 -38 43 -2 24 -8 33 -25 35 -20 3
-23 -1 -23 -33z"/>
<path d="M3387 1664 c-36 -42 -54 -48 -74 -24 -20 23 -53 27 -53 6 0 -8 8 -24
19 -37 15 -18 31 -24 92 -28 66 -5 75 -9 88 -32 13 -24 13 -29 -3 -53 -23 -36
-50 -30 -54 12 -9 90 -136 69 -136 -23 0 -42 19 -65 55 -65 l28 0 -20 34 c-16
28 -18 39 -9 56 14 27 30 17 30 -21 0 -39 32 -69 74 -69 45 0 96 55 96 105 0
40 -38 90 -75 99 -29 7 -25 26 6 26 12 0 19 7 19 20 0 31 -54 27 -83 -6z"/>
<path d="M3683 1681 c-26 -12 -39 -47 -23 -66 17 -21 87 -19 98 1 5 9 14 14
21 10 17 -11 13 -20 -11 -31 -27 -12 -36 -58 -17 -82 9 -10 23 -13 48 -9 l35
5 -21 -20 c-25 -26 -89 -35 -128 -18 l-30 13 25 4 c36 6 50 20 50 51 0 34 -17
51 -50 51 -57 0 -91 -83 -52 -127 27 -31 57 -43 107 -43 54 0 95 19 119 54 18
28 22 91 6 101 -6 4 -16 21 -24 38 -7 18 -23 40 -34 50 -24 22 -87 31 -119 18z
m37 -41 c0 -5 -4 -10 -10 -10 -5 0 -10 5 -10 10 0 6 5 10 10 10 6 0 10 -4 10
-10z m80 -90 c0 -5 -4 -10 -10 -10 -5 0 -10 5 -10 10 0 6 5 10 10 10 6 0 10
-4 10 -10z m-110 -10 c0 -5 -4 -10 -10 -10 -5 0 -10 5 -10 10 0 6 5 10 10 10
6 0 10 -4 10 -10z"/>
<path d="M4558 1506 c-4 -21 0 -25 28 -30 31 -6 62 -31 51 -42 -3 -3 -39 4
-81 16 -80 22 -96 21 -96 -9 0 -14 14 -21 58 -30 142 -31 149 -37 112 -98 -28
-46 -58 -45 -57 2 1 44 -26 75 -67 75 -55 -1 -92 -49 -82 -105 5 -26 12 -34
34 -38 34 -7 35 -6 22 27 -12 31 2 66 25 66 11 0 15 -12 15 -44 0 -50 24 -76
70 -76 40 0 66 25 91 85 17 42 25 52 31 40 11 -18 31 -19 57 -3 15 9 25 9 43
1 22 -11 22 -12 -8 -12 -66 -2 -89 -91 -31 -119 90 -43 157 100 76 160 -16 12
-29 28 -29 35 0 21 37 15 43 -7 8 -30 47 -27 47 3 0 28 -25 53 -62 62 -21 5
-33 1 -52 -19 -15 -14 -26 -32 -26 -41 0 -36 -65 0 -83 47 -26 65 -120 104
-129 54z m254 -241 c0 -5 -5 -11 -11 -13 -6 -2 -11 4 -11 13 0 9 5 15 11 13 6
-2 11 -8 11 -13z"/>
<path d="M2307 1492 c-9 -10 -17 -28 -17 -41 0 -24 -2 -25 -82 -41 -39 -8 -58
-16 -58 -26 0 -24 21 -26 99 -9 87 18 81 18 81 1 0 -7 -18 -17 -42 -22 -64
-14 -57 -38 12 -44 30 -3 60 -8 66 -12 19 -12 22 -56 7 -78 -20 -28 -35 -25
-55 10 -32 56 -111 48 -133 -13 -21 -61 46 -109 107 -76 13 7 36 12 51 10 15
-1 39 5 52 13 16 10 34 14 50 10 59 -15 115 34 115 101 0 68 -74 134 -118 107
-19 -13 -3 -42 23 -42 29 0 48 -24 48 -61 0 -35 -23 -62 -45 -54 -8 3 -25 26
-37 51 -13 25 -31 50 -41 57 -14 8 -17 18 -13 41 5 24 1 33 -22 52 -15 12 -24
27 -21 33 11 18 33 13 39 -9 6 -22 14 -24 37 -10 13 8 13 13 0 37 -20 36 -77
44 -103 15z m-31 -283 c8 -14 -21 -43 -35 -35 -19 12 -13 46 8 46 11 0 23 -5
27 -11z"/>
<path d="M3520 1447 c0 -18 5 -23 21 -23 12 1 24 -4 26 -10 3 -8 -10 -10 -40
-7 -36 4 -49 1 -66 -16 -25 -25 -27 -44 -5 -65 18 -19 86 -21 116 -5 17 9 24
8 34 -5 8 -11 22 -16 40 -14 l27 3 -26 31 c-15 18 -27 43 -27 57 0 37 -36 77
-71 77 -24 0 -29 -4 -29 -23z m30 -87 c0 -5 -11 -10 -24 -10 -14 0 -28 5 -31
10 -4 6 7 10 24 10 17 0 31 -4 31 -10z"/>
<path d="M5040 1399 c0 -13 10 -23 29 -30 16 -6 32 -17 35 -25 7 -18 4 -18
-84 2 -61 14 -74 15 -81 3 -18 -28 -7 -36 86 -58 107 -26 114 -35 75 -99 -27
-44 -61 -41 -71 6 -4 18 -15 42 -24 52 -24 26 -79 26 -105 0 -20 -20 -26 -65
-12 -86 13 -20 53 -36 75 -30 12 2 31 -2 41 -10 11 -8 37 -14 57 -14 44 0 81
37 100 100 13 41 20 45 69 31 l25 -7 -30 -8 c-43 -11 -55 -24 -55 -61 0 -73
91 -91 125 -24 19 36 19 72 0 109 -12 23 -28 33 -69 45 -43 13 -56 22 -66 46
-26 62 -120 109 -120 58z m-70 -184 c15 -18 5 -35 -21 -35 -12 0 -19 7 -19 18
0 33 20 42 40 17z m280 -51 c0 -8 -7 -14 -15 -14 -15 0 -21 21 -9 33 10 9 24
-2 24 -19z"/>
<path d="M2044 1365 c-18 -7 -36 -25 -43 -43 -15 -36 -35 -46 -61 -32 -45 24
-68 -1 -32 -33 21 -19 70 -22 122 -7 59 17 96 -26 74 -84 -10 -27 -41 -19 -52
13 -13 36 -43 54 -77 45 -53 -13 -72 -80 -36 -126 16 -19 27 -24 51 -20 l32 5
-26 24 c-30 28 -36 76 -9 71 9 -2 20 -18 25 -35 25 -95 148 -48 148 57 0 54
-42 100 -90 100 -28 0 -31 2 -20 15 7 8 19 15 26 15 15 0 20 35 6 44 -4 2 -21
-2 -38 -9z"/>
<path d="M5340 1257 c0 -34 39 -66 93 -76 26 -4 54 -14 62 -21 21 -17 19 -64
-4 -84 -30 -27 -46 -15 -47 33 -1 83 -100 94 -136 15 -17 -36 0 -76 35 -85 23
-6 28 -5 23 8 -15 38 -16 59 -3 77 21 29 38 11 31 -34 -17 -106 137 -106 166
0 9 35 8 46 -7 73 -10 18 -29 36 -41 42 -32 14 -27 29 7 22 24 -5 30 -2 35 16
11 43 -43 50 -94 12 -40 -29 -58 -32 -67 -7 -14 37 -53 44 -53 9z"/>
<path d="M1710 1244 c-41 -8 -83 -19 -92 -24 -10 -6 -31 -10 -47 -10 -20 0
-36 -9 -50 -26 -25 -32 -28 -69 -5 -60 9 3 19 6 24 6 4 0 10 9 13 21 6 23 30
21 35 -3 2 -9 -12 -24 -33 -36 -27 -17 -35 -28 -35 -50 0 -54 73 -87 116 -51
9 7 28 12 41 11 41 -6 83 18 90 49 5 25 8 26 28 17 83 -38 142 93 68 152 -29
23 -49 24 -153 4z m100 -41 c-28 -11 -50 -36 -50 -59 0 -17 -7 -25 -24 -30
-17 -4 -22 -11 -19 -24 7 -25 -17 -37 -32 -17 -17 24 -56 22 -62 -3 -6 -23
-43 -28 -43 -6 0 21 53 56 85 56 38 0 85 36 85 66 0 21 4 24 38 23 20 0 30 -3
22 -6z m-110 -22 c0 -13 -27 -21 -45 -15 -8 4 -12 10 -9 15 7 12 54 12 54 0z
m140 -36 c0 -8 -7 -15 -15 -15 -8 0 -15 7 -15 15 0 8 7 15 15 15 8 0 15 -7 15
-15z"/>
<path d="M5621 1156 c-45 -25 -66 -100 -41 -147 15 -27 63 -49 109 -49 31 0
49 7 73 29 28 25 33 36 33 76 0 40 -5 51 -33 76 -25 23 -42 29 -75 29 -23 -1
-53 -7 -66 -14z m116 -63 c35 -52 -35 -113 -86 -75 -44 32 -37 83 13 102 29
10 55 1 73 -27z"/>
<path d="M1811 1026 c-12 -7 -33 -11 -46 -9 -15 3 -28 -3 -43 -22 -22 -28 -19
-60 5 -51 8 3 19 6 24 6 4 0 6 7 3 15 -7 18 0 19 27 3 17 -11 22 -10 37 10 14
18 20 20 30 10 6 -6 12 -20 12 -30 0 -14 -8 -18 -38 -18 -74 0 -112 -62 -49
-83 21 -7 37 -4 67 11 34 17 41 17 52 5 10 -12 13 -12 26 1 14 14 14 17 -1 34
-19 21 -22 42 -7 42 6 0 10 -4 10 -10 0 -5 9 -10 21 -10 14 0 19 5 16 14 -4 9
2 17 14 21 27 9 24 25 -5 25 -13 0 -27 6 -30 13 -4 9 -8 8 -17 -4 -10 -13 -15
-12 -39 13 -32 32 -36 32 -69 14z m24 -126 c-3 -5 -17 -10 -31 -10 -14 0 -22
4 -19 10 3 6 17 10 31 10 14 0 22 -4 19 -10z"/>
<path d="M7834 7136 c-3 -8 -4 -29 -2 -47 3 -31 5 -33 64 -45 86 -17 159 -51
192 -89 32 -35 117 -197 182 -345 23 -52 312 -720 641 -1483 330 -764 604
-1398 610 -1408 7 -14 21 -19 53 -19 l43 0 603 1343 c761 1695 785 1743 920
1871 75 70 123 99 210 127 l55 17 3 46 3 46 -553 -2 -553 -3 -3 -42 -3 -41 78
-7 c256 -22 363 -100 363 -262 0 -79 -20 -157 -74 -288 -57 -142 -745 -1688
-755 -1697 -7 -8 -794 1818 -842 1955 -39 111 -38 166 1 211 17 18 48 41 70
50 42 17 182 36 263 36 l48 0 -3 43 -3 42 -803 3 c-683 2 -803 0 -808 -12z"/>
<path d="M11560 7107 l0 -44 113 -6 c148 -8 213 -31 283 -101 48 -47 52 -56
63 -121 9 -51 11 -432 9 -1410 l-3 -1340 -24 -52 c-51 -114 -153 -163 -337
-163 l-104 0 0 -45 0 -45 880 0 880 0 0 44 0 44 -124 4 c-115 4 -128 6 -189
36 -74 37 -121 86 -140 147 -9 31 -12 356 -12 1405 0 1315 1 1367 19 1414 49
126 169 186 379 186 l67 0 0 45 0 45 -880 0 -880 0 0 -43z"/>
<path d="M13627 7143 c-4 -3 -7 -210 -7 -460 l0 -453 50 0 c46 0 50 2 56 28
37 169 69 261 129 368 43 77 142 186 205 226 105 67 303 102 540 96 l125 -3 3
-1325 c1 -799 -1 -1371 -7 -1442 -11 -129 -26 -171 -83 -225 -61 -59 -118 -76
-260 -81 l-128 -4 0 -44 0 -44 886 0 885 0 -3 43 -3 42 -125 6 c-142 6 -190
22 -259 85 -59 52 -70 80 -81 192 -5 55 -10 675 -10 1451 l0 1354 218 -6 c119
-4 240 -11 267 -17 156 -32 335 -179 412 -340 38 -79 88 -219 113 -317 11 -43
11 -43 55 -43 l45 0 0 460 0 460 -1508 0 c-830 0 -1512 -3 -1515 -7z"/>
<path d="M21867 7143 c-4 -3 -7 -23 -7 -43 l0 -37 118 -11 c185 -17 262 -53
307 -146 21 -43 27 -76 35 -182 12 -165 12 -2346 0 -2520 -5 -79 -15 -147 -25
-170 -45 -109 -166 -164 -362 -164 l-73 0 0 -45 0 -45 851 0 850 0 -3 43 -3
42 -95 6 c-118 8 -153 15 -211 45 -55 28 -103 80 -120 131 -10 28 -14 193 -16
646 l-4 607 158 0 c420 0 689 44 901 145 113 54 163 88 248 168 171 159 251
340 261 583 11 258 -63 452 -236 625 -198 197 -465 291 -906 319 -175 11
-1658 14 -1668 3z m1554 -222 c215 -55 338 -180 401 -408 19 -69 22 -103 22
-288 0 -185 -3 -220 -22 -290 -61 -224 -197 -367 -399 -419 -74 -19 -226 -31
-277 -22 l-36 7 0 726 0 726 118 -6 c64 -4 151 -15 193 -26z"/>
<path d="M16490 4950 l0 -260 725 0 725 0 0 260 0 260 -725 0 -725 0 0 -260z"/>
<path d="M7390 3170 l0 -60 8885 0 8885 0 0 60 0 60 -8885 0 -8885 0 0 -60z"/>
<path d="M19150 2624 c-162 -35 -314 -151 -383 -294 -120 -246 -38 -520 207
-695 83 -59 132 -87 344 -196 275 -141 365 -220 391 -339 15 -67 5 -119 -33
-183 -61 -101 -176 -153 -325 -145 -261 14 -477 213 -564 518 -22 77 -27 85
-51 88 l-26 3 0 -355 0 -356 23 0 c15 0 36 16 60 45 24 29 51 48 76 56 42 13
52 10 241 -57 97 -35 115 -38 240 -42 166 -5 251 11 368 69 101 49 210 153
259 245 81 152 85 335 11 492 -68 144 -212 254 -578 442 -243 125 -333 191
-371 275 -24 51 -24 129 0 180 25 55 99 118 162 138 260 84 577 -126 655 -436
16 -64 18 -67 46 -67 l30 0 -7 298 c-3 163 -9 305 -11 315 -10 35 -40 19 -55
-30 -8 -27 -26 -54 -41 -66 -25 -19 -31 -19 -70 -8 -24 7 -83 30 -133 51 -158
67 -319 86 -465 54z"/>
<path d="M7350 2586 c0 -23 22 -33 86 -41 34 -4 76 -15 93 -26 66 -40 65 -26
71 -729 6 -607 7 -638 28 -712 11 -42 31 -96 42 -119 44 -86 174 -197 284
-243 77 -32 182 -46 348 -46 257 0 393 44 532 171 109 100 153 190 177 361 7
49 14 313 18 643 l6 560 25 45 c28 50 82 86 145 95 64 10 75 15 75 36 0 18
-10 19 -325 19 -331 0 -341 -1 -317 -36 4 -6 30 -14 57 -18 107 -15 157 -51
186 -133 22 -61 19 -1107 -3 -1221 -51 -258 -219 -393 -474 -380 -189 10 -306
108 -333 278 -7 41 -11 304 -11 697 0 701 -1 693 64 732 17 11 58 22 91 26
102 11 115 15 115 36 0 18 -13 19 -490 19 -410 0 -490 -2 -490 -14z"/>
<path d="M9380 2576 c0 -22 6 -26 48 -31 68 -10 123 -46 181 -119 l51 -64 0
-704 c0 -769 0 -771 -57 -830 -37 -39 -84 -58 -160 -65 -61 -6 -63 -7 -63 -34
l0 -29 340 0 340 0 0 29 c0 28 -1 29 -64 33 -112 7 -191 64 -216 158 -6 24 -9
269 -8 669 l3 632 629 -775 c561 -691 633 -776 657 -776 l28 0 3 858 c3 810 4
859 22 900 26 59 63 87 145 107 63 15 71 20 71 41 l0 24 -311 0 -310 0 3 -22
c3 -19 13 -24 72 -35 89 -16 141 -50 169 -111 21 -46 22 -60 25 -516 l3 -469
-462 576 -461 577 -339 0 -339 0 0 -24z"/>
<path d="M11470 2581 c0 -21 12 -25 107 -36 64 -8 112 -38 135 -85 17 -32 18
-92 18 -802 0 -681 -2 -772 -16 -808 -23 -58 -69 -82 -165 -88 l-79 -5 0 -28
0 -29 495 0 495 0 0 29 0 28 -79 5 c-90 5 -140 30 -169 81 -16 30 -17 91 -17
797 0 421 3 777 8 792 4 15 21 43 38 62 30 35 54 43 172 61 28 5 37 11 37 25
0 20 -10 20 -490 20 -477 0 -490 -1 -490 -19z"/>
<path d="M12550 2576 c0 -21 7 -26 51 -36 70 -17 100 -47 150 -148 24 -48 201
-454 394 -902 347 -809 350 -815 380 -818 l30 -3 329 733 c467 1040 475 1056
606 1122 46 23 65 38 65 52 0 18 -12 19 -308 22 -290 2 -308 1 -305 -15 3 -18
48 -36 123 -48 26 -5 51 -19 77 -45 34 -34 38 -43 38 -89 0 -28 -9 -77 -20
-109 -19 -53 -443 -1013 -446 -1009 -13 17 -477 1119 -481 1143 -12 75 21 107
122 119 84 9 95 14 95 36 0 18 -12 19 -450 19 l-450 0 0 -24z"/>
<path d="M14660 2580 c0 -14 9 -21 38 -25 132 -22 174 -43 198 -101 12 -27 14
-171 14 -801 0 -744 -1 -768 -20 -808 -28 -57 -68 -78 -162 -83 l-78 -5 0 -28
0 -29 818 0 819 0 41 293 c23 160 42 298 42 305 0 9 -10 12 -27 10 -22 -2 -29
-12 -43 -53 -57 -169 -174 -313 -300 -372 -112 -53 -187 -67 -365 -67 -144 -1
-163 1 -195 20 -64 37 -65 41 -68 428 l-4 349 75 -6 c94 -7 151 -32 201 -87
63 -70 125 -231 126 -327 0 -19 6 -23 30 -23 l30 0 0 500 0 500 -30 0 c-24 0
-30 -4 -30 -20 0 -49 -34 -180 -61 -240 -34 -73 -77 -123 -131 -151 -41 -21
-168 -45 -192 -36 -14 6 -16 50 -16 388 l0 382 208 -6 c228 -6 285 -16 384
-69 103 -55 163 -145 204 -305 17 -69 20 -73 46 -73 l28 0 0 280 0 280 -790 0
c-777 0 -790 0 -790 -20z"/>
<path d="M16556 2585 c-7 -20 19 -30 104 -44 76 -13 108 -33 135 -87 19 -38
20 -59 20 -804 0 -754 0 -766 -21 -804 -28 -54 -77 -78 -170 -84 -74 -5 -74
-5 -74 -33 l0 -29 490 0 490 0 0 30 c0 30 -1 30 -52 30 -75 0 -124 16 -166 55
l-37 33 -3 362 -3 361 60 -3 60 -3 304 -430 304 -430 299 0 299 0 3 28 c3 22
0 27 -20 27 -56 0 -122 45 -184 126 -52 68 -478 668 -497 701 -5 7 15 19 57
33 222 73 346 240 346 463 0 132 -48 246 -145 342 -100 100 -222 145 -442 164
-65 6 -350 11 -634 11 -455 0 -518 -2 -523 -15z m1069 -125 c82 -31 155 -104
184 -185 44 -117 38 -311 -11 -410 -26 -52 -83 -112 -131 -136 -57 -29 -174
-49 -293 -49 l-104 0 0 406 0 406 148 -4 c123 -4 157 -8 207 -28z"/>
<path d="M20220 2580 c0 -14 9 -21 38 -25 20 -3 53 -8 72 -11 53 -9 103 -39
125 -76 20 -32 20 -51 20 -813 0 -765 0 -781 -20 -815 -30 -52 -93 -80 -178
-80 l-68 0 3 -27 3 -28 493 -3 492 -2 0 30 0 30 -63 0 c-73 0 -138 28 -171 73
-21 28 -21 37 -21 820 l0 792 23 33 c29 40 63 58 127 67 95 12 105 16 105 36
0 18 -13 19 -490 19 -480 0 -490 0 -490 -20z"/>
<path d="M21370 2340 l0 -260 24 0 c21 0 26 8 40 65 22 90 56 161 104 221 70
88 175 124 365 124 l87 0 0 -792 c0 -492 -4 -807 -10 -829 -20 -70 -88 -109
-191 -109 -59 0 -59 0 -59 -30 l0 -30 493 2 492 3 3 27 3 28 -68 0 c-79 0
-143 27 -177 73 -21 28 -21 39 -24 844 l-3 816 138 -5 c163 -6 203 -20 284
-95 57 -52 104 -140 134 -251 17 -58 20 -63 44 -60 l26 3 3 175 c2 96 0 212
-3 258 l-7 82 -849 0 -849 0 0 -260z"/>
<path d="M23200 2575 c0 -17 6 -25 18 -25 41 0 96 -24 133 -57 54 -49 109
-140 388 -652 l243 -444 -4 -256 c-3 -230 -5 -260 -23 -296 -30 -60 -71 -79
-187 -83 l-98 -4 0 -29 0 -29 535 0 535 0 0 30 0 30 -77 0 c-102 0 -141 12
-183 55 l-35 36 -3 319 -3 319 236 398 c347 583 364 606 466 647 39 16 54 27
54 42 0 18 -10 19 -280 19 l-280 0 -3 -22 c-3 -19 3 -22 45 -28 71 -9 132 -34
150 -61 34 -53 0 -125 -265 -569 -101 -170 -185 -311 -187 -313 -1 -1 -92 163
-203 365 -191 351 -252 473 -252 508 0 30 45 63 96 70 62 9 85 21 78 40 -5 13
-67 15 -450 15 l-444 0 0 -25z"/>
</g>
</svg>
